<?xml version="1.0"?>
<svg width="640" height="480" xmlns="http://www.w3.org/2000/svg" xmlns:svg="http://www.w3.org/2000/svg">
 <!-- Created with SVG-edit - https://github.com/SVG-Edit/svgedit-->
 <g class="layer">
  <title>Layer 1</title>
  <path d="m248.472466,288.147498l0,-175.499998l0,0c0,-7.45585 6.128111,-13.5 13.687501,-13.5l164.250012,0c7.559404,0 13.687501,6.044149 13.687501,13.5c0,7.455836 -6.128097,13.5 -13.687501,13.5l-13.687501,0l0,175.499998c0,7.45585 -6.128104,13.5 -13.687501,13.5l-164.250012,0l0,0c-7.559404,0 -13.687501,-6.044149 -13.687501,-13.5c0,-7.45585 6.128097,-13.5 13.687501,-13.5l13.687501,0zm27.375002,-188.999998l0,0c7.55939,0 13.687501,6.044149 13.687501,13.5c0,7.455836 -6.128111,13.5 -13.687501,13.5c-3.779691,0 -6.84375,-3.022086 -6.84375,-6.75c0,-3.727922 3.064059,-6.75 6.84375,-6.75l13.687501,0m136.87501,13.5l-150.562511,0m-27.375002,161.999998l0,0c3.779691,0 6.84375,3.022086 6.84375,6.75c0,3.727914 -3.064059,6.75 -6.84375,6.75l13.687501,0m-13.687501,13.5l0,0c7.55939,0 13.687501,-6.044149 13.687501,-13.5l0,-13.5" fill="#ede8e8" id="svg_2" stroke="#000000" stroke-dasharray="null" stroke-linecap="null" stroke-linejoin="null" stroke-width="5"/>
  <text fill="#000000" font-family="serif" font-size="24" id="svg_5" stroke="#000000" stroke-dasharray="null" stroke-linecap="null" stroke-linejoin="null" stroke-width="0" text-anchor="middle" transform="matrix(1.62207 0 0 1.50943 -169.096 -75.3962)" x="285.5" xml:space="preserve" y="169.5">M</text>
  <text fill="#000000" font-family="serif" font-size="24" id="svg_7" stroke="#000000" stroke-dasharray="null" stroke-linecap="null" stroke-linejoin="null" stroke-width="0" style="cursor: move;" text-anchor="middle" transform="matrix(1.90625 0 0 1.56604 -301.751 -119.443)" x="332.598361" xml:space="preserve" y="219.096386">C</text>
  <text fill="#000000" font-family="serif" font-size="24" id="svg_8" stroke="#000000" stroke-dasharray="null" stroke-linecap="null" stroke-linejoin="null" stroke-width="0" text-anchor="middle" transform="matrix(1.96243 0 0 1.3036 -376.446 -76.3637)" x="381.012341" xml:space="preserve" y="260.716667">L</text>
  <path d="m256.67305,167.02898c30.54175,-48.97125 71.75799,-24.08091 117.141,6.41776c45.38301,30.49867 -64.54318,2.36292 5.27632,56.47777c69.8195,54.11485 -4.57465,45.60833 -91.09038,55.13574" fill="#000000" id="svg_9" stroke="#000000" stroke-dasharray="null" stroke-linecap="null" stroke-linejoin="null" stroke-width="5"/>
  <text fill="#ffffff" font-family="serif" font-size="24" id="svg_10" stroke="#000000" stroke-dasharray="null" stroke-linecap="null" stroke-linejoin="null" stroke-width="0" text-anchor="middle" transform="matrix(1.64593 0 0 1.34375 191.563 -166.391)" x="61.5" xml:space="preserve" y="269.5">M</text>
  <text fill="#ffffff" font-family="serif" font-size="24" id="svg_11" stroke="#000000" stroke-dasharray="null" stroke-linecap="null" stroke-linejoin="null" stroke-width="0" text-anchor="middle" transform="matrix(1.875 0 0 1.37787 -61.9238 -77.8975)" x="206.9" xml:space="preserve" y="223.833333">C</text>
  <text fill="#ffffff" font-family="serif" font-size="24" id="svg_12" stroke="#000000" stroke-dasharray="null" stroke-linecap="null" stroke-linejoin="null" stroke-width="0" text-anchor="middle" transform="matrix(2 0 0 1.42308 -170.156 -142.788)" x="268" xml:space="preserve" y="284.013511">L</text>
 </g>
</svg>